<?xml version="1.0" standalone="no"?><!DOCTYPE svg PUBLIC "-//W3C//DTD SVG 1.1//EN" "http://www.w3.org/Graphics/SVG/1.1/DTD/svg11.dtd"><svg t="1612421908721" class="icon" viewBox="0 0 1024 1024" version="1.1" xmlns="http://www.w3.org/2000/svg" p-id="8081" xmlns:xlink="http://www.w3.org/1999/xlink" width="200" height="200"><defs><style type="text/css"></style></defs><path d="M293.4 640.3c-7.8 0-14.2-6.3-14.2-14.2V467.6c0-16.3 7.9-31.5 21.3-40.9l170.9-120.4c6.4-4.5 15.3-3 19.8 3.4s3 15.3-3.4 19.8l-171 120.4c-5.8 4.1-9.3 10.7-9.3 17.8v158.5c0.1 7.7-6.3 14.1-14.1 14.1z m0 0" fill="#515151" p-id="8082"></path><path d="M511.4 225.2c7 0 13.8 2.2 19.5 6.2L789 413.2c8.9 6.3 14.2 16.4 14.2 27.3v339.2h-156c-3.2 0-5.8-2.5-5.8-5.6v-41c0-41.7-33.9-75.5-75.7-75.5H457.2c-41.8 0-75.7 33.9-75.7 75.5v41c0 3.1-2.6 5.6-5.8 5.6h-156V440.4c0-10.8 5.3-21 14.2-27.3L492 231.3c5.7-3.9 12.4-6.1 19.4-6.1m0-41.7c-15.3 0-30.5 4.6-43.5 13.8L210 379.1c-20 14.1-31.8 36.9-31.8 61.3v347.1c0 18.7 15.3 33.8 34 33.8h163.7c26.2 0 47.4-21.2 47.4-47.3v-41c0-18.7 15.3-33.8 34-33.8h108.6c18.8 0 34 15.2 34 33.8v41c0 26.1 21.3 47.3 47.4 47.3H811c18.8 0 34-15.2 34-33.8V440.4c0-24.4-11.8-47.3-31.8-61.3L555 197.3c-13.1-9.2-28.3-13.8-43.6-13.8z m0 0" fill="#515151" p-id="8083"></path></svg>